# xmcd CD database file
#
# Track frame offsets:
#	150
#	16342
#	59281
#	89313
#	130418
#	168625
#	195345
#	210259
#	240882
#	269016
#	293952
#
# Disc length: 4090 seconds
#
# Revision: 0
# Processed by: cddbd v1.5.1PL0 Copyright (c) Steve Scherf et al.
# Submitted via: CDex 1.50
#
DISCID=960ff80b
DTITLE=Fredrick Sanders - Soul Trinity
DYEAR=2003
DGENRE=Jazz
TTITLE0=Grace of God
TTITLE1=Ones of Wisdom
TTITLE2=Soul Trinity
TTITLE3=Lurlene's Smile
TTITLE4=We Fall Down
TTITLE5=Wade in de Water
TTITLE6=Waiting on Your Word
TTITLE7=Jasmines in June
TTITLE8=Summer Wind
TTITLE9=Con Amour
TTITLE10=We Fall Down (Solo)
EXTD=YEAR: 2003
EXTT0=
EXTT1=
EXTT2=
EXTT3=
EXTT4=
EXTT5=
EXTT6=
EXTT7=
EXTT8=
EXTT9=
EXTT10=
PLAYORDER=
